<svg width="1800" height="520" viewBox="0 0 1800 520" fill="none" xmlns="http://www.w3.org/2000/svg" role="img" aria-labelledby="title desc">
  <title id="title">AECODE</title>
  <desc id="desc">AECODE Ingenieria y Construccion Moderna</desc>
  <rect width="1800" height="520" fill="transparent"/>
  <g fill="#FFFFFF">
    <path d="M0 260L96 0H162L304 260H216L188 204H92L68 260H0ZM116 148H162L136 82L116 148Z"/>
    <path d="M336 0H558V72H420V96H544V160H420V188H562V260H336V0Z"/>
    <path d="M624 76C624 30 654 0 708 0H878V76H720C710 76 704 82 704 92V168C704 178 710 184 720 184H878V260H708C654 260 624 230 624 184V76Z"/>
    <path d="M960 76C960 30 990 0 1044 0H1194C1248 0 1278 30 1278 76V184C1278 230 1248 260 1194 260H1044C990 260 960 230 960 184V76ZM1042 92V168C1042 178 1048 184 1058 184H1180C1190 184 1196 178 1196 168V92C1196 82 1190 76 1180 76H1058C1048 76 1042 82 1042 92Z"/>
    <path d="M1350 0H1530C1586 0 1620 34 1620 92V168C1620 226 1586 260 1530 260H1350V0ZM1432 76V184H1516C1530 184 1538 176 1538 162V98C1538 84 1530 76 1516 76H1432Z"/>
    <path d="M1666 0H1800V72H1746V188H1800V260H1666V188H1664V72H1666V0Z"/>
  </g>
  <g fill="#FFFFFF" opacity="0.94">
    <text x="0" y="430" font-family="Outfit, Arial, sans-serif" font-size="90" font-weight="500" letter-spacing="-1">Ingenieria &amp; Construccion Moderna</text>
  </g>
</svg>
